<?xml version="1.0" encoding="utf-8"?>
<!-- Generator: Adobe Illustrator 28.7.1, SVG Export Plug-In . SVG Version: 9.03 Build 54978)  -->
<svg version="1.1" id="Layer_1" xmlns="http://www.w3.org/2000/svg" xmlns:xlink="http://www.w3.org/1999/xlink" x="0px" y="0px"
	 viewBox="0 0 20 20" style="enable-background:new 0 0 20 20;" xml:space="preserve">
<g>
	<path d="M6,16V4h3.9c0.9,0,1.7,0.2,2.3,0.5c0.6,0.3,1,0.7,1.3,1.3c0.3,0.5,0.4,1.1,0.4,1.8c0,0.6-0.1,1.2-0.4,1.8
		c-0.3,0.5-0.7,1-1.3,1.3c-0.6,0.3-1.4,0.5-2.3,0.5H7.4v5H6z M7.4,9.9h2.3c0.9,0,1.6-0.2,2-0.7c0.4-0.4,0.6-1,0.6-1.7
		c0-0.7-0.2-1.3-0.6-1.7c-0.4-0.4-1.1-0.6-2-0.6H7.4V9.9z M12.3,16l-2.6-5.4h1.6L14,16H12.3z"/>
</g>
</svg>
